<svg width="133" height="38" viewBox="0 0 133 38" fill="none" xmlns="http://www.w3.org/2000/svg">
<path d="M20.075 3.63008V5.17008H0.44V7.51615e-05H25.41V4.73008L5.445 33.9351L5.28 32.2851H25.685V37.4551H4.09782e-08V32.6701L20.075 3.63008ZM36.0052 23.5401H56.1902V28.7101H36.0052V23.5401ZM28.9652 37.4551L42.3302 7.51615e-05H49.8102L63.1752 37.4551H57.5652L45.5752 3.85008H46.5652L34.5752 37.4551H28.9652ZM67.882 37.4551V7.51615e-05H81.632C84.1987 7.51615e-05 86.4354 0.550076 88.342 1.65008C90.2854 2.71341 91.7887 4.16174 92.852 5.99508C93.9154 7.82841 94.447 9.88174 94.447 12.1551C94.447 14.4284 93.9154 16.4817 92.852 18.3151C91.7887 20.1484 90.2854 21.5967 88.342 22.6601C86.4354 23.7234 84.1987 24.2551 81.632 24.2551H72.392V19.0851H80.697C83.117 19.0851 85.0604 18.4801 86.527 17.2701C87.9937 16.0234 88.727 14.3184 88.727 12.1551C88.727 9.84508 87.9937 8.10341 86.527 6.93008C85.0604 5.75674 83.117 5.17008 80.697 5.17008H72.337L73.382 3.90508V37.4551H67.882ZM88.782 37.4551L80.037 21.8901H86.087L94.832 37.4551H88.782ZM105.453 23.5401H125.638V28.7101H105.453V23.5401ZM98.4135 37.4551L111.778 7.51615e-05H119.258L132.623 37.4551H127.013L115.023 3.85008H116.013L104.023 37.4551H98.4135Z" fill="white"/>
</svg>
